<svg viewBox="0 0 330 200" xmlns="http://www.w3.org/2000/svg"><g><g><g><g><g><line x1="50" y1="178" x2="45" y2="178" style="visibility: inherit;" fill="rgb(0, 0, 0)" stroke="rgb(204, 204, 204)" stroke-width="1px"></line><line x1="50" y1="155.75" x2="45" y2="155.75" style="visibility: inherit;" fill="rgb(0, 0, 0)" stroke="rgb(204, 204, 204)" stroke-width="1px"></line><line x1="50" y1="133.5" x2="45" y2="133.5" style="visibility: inherit;" fill="rgb(0, 0, 0)" stroke="rgb(204, 204, 204)" stroke-width="1px"></line><line x1="50" y1="111.24999999999999" x2="45" y2="111.24999999999999" style="visibility: inherit;" fill="rgb(0, 0, 0)" stroke="rgb(204, 204, 204)" stroke-width="1px"></line><line x1="50" y1="88.99999999999999" x2="45" y2="88.99999999999999" style="visibility: inherit;" fill="rgb(0, 0, 0)" stroke="rgb(204, 204, 204)" stroke-width="1px"></line><line x1="50" y1="66.75" x2="45" y2="66.75" style="visibility: inherit;" fill="rgb(0, 0, 0)" stroke="rgb(204, 204, 204)" stroke-width="1px"></line><line x1="50" y1="44.5" x2="45" y2="44.5" style="visibility: inherit;" fill="rgb(0, 0, 0)" stroke="rgb(204, 204, 204)" stroke-width="1px"></line><line x1="50" y1="22.25" x2="45" y2="22.25" style="visibility: inherit;" fill="rgb(0, 0, 0)" stroke="rgb(204, 204, 204)" stroke-width="1px"></line><line x1="50" y1="0" x2="45" y2="0" style="visibility: inherit;" fill="rgb(0, 0, 0)" stroke="rgb(204, 204, 204)" stroke-width="1px"></line></g><g transform="translate(40, 0)"><text x="0" y="178" dx="0em" dy="0.3em" style="text-anchor: end; visibility: hidden; font-family: Roboto, sans-serif; font-size: 12px; font-weight: 200;" fill="rgb(50, 49, 63)" stroke="none" stroke-width="1px">-0.2</text><text x="0" y="155.75" dx="0em" dy="0.3em" style="text-anchor: end; visibility: inherit; font-family: Roboto, sans-serif; font-size: 12px; font-weight: 200;" fill="rgb(50, 49, 63)" stroke="none" stroke-width="1px">0</text><text x="0" y="133.5" dx="0em" dy="0.3em" style="text-anchor: end; visibility: hidden; font-family: Roboto, sans-serif; font-size: 12px; font-weight: 200;" fill="rgb(50, 49, 63)" stroke="none" stroke-width="1px">0.2</text><text x="0" y="111.24999999999999" dx="0em" dy="0.3em" style="text-anchor: end; visibility: inherit; font-family: Roboto, sans-serif; font-size: 12px; font-weight: 200;" fill="rgb(50, 49, 63)" stroke="none" stroke-width="1px">0.4</text><text x="0" y="88.99999999999999" dx="0em" dy="0.3em" style="text-anchor: end; visibility: hidden; font-family: Roboto, sans-serif; font-size: 12px; font-weight: 200;" fill="rgb(50, 49, 63)" stroke="none" stroke-width="1px">0.6</text><text x="0" y="66.75" dx="0em" dy="0.3em" style="text-anchor: end; visibility: inherit; font-family: Roboto, sans-serif; font-size: 12px; font-weight: 200;" fill="rgb(50, 49, 63)" stroke="none" stroke-width="1px">0.8</text><text x="0" y="44.5" dx="0em" dy="0.3em" style="text-anchor: end; visibility: hidden; font-family: Roboto, sans-serif; font-size: 12px; font-weight: 200;" fill="rgb(50, 49, 63)" stroke="none" stroke-width="1px">1</text><text x="0" y="22.25" dx="0em" dy="0.3em" style="text-anchor: end; visibility: inherit; font-family: Roboto, sans-serif; font-size: 12px; font-weight: 200;" fill="rgb(50, 49, 63)" stroke="none" stroke-width="1px">1.2</text><text x="0" y="0" dx="0em" dy="0.3em" style="text-anchor: end; visibility: hidden; font-family: Roboto, sans-serif; font-size: 12px; font-weight: 200;" fill="rgb(50, 49, 63)" stroke="none" stroke-width="1px">1.4</text></g><line x1="50" y1="0" x2="50" y2="178" fill="rgb(0, 0, 0)" stroke="rgb(204, 204, 204)" stroke-width="1px"></line></g></g><g transform="translate(50, 0)" clip-path="url(#clip_0)"><clipPath id="clip_0"><rect width="280" height="178"></rect></clipPath><g><g><g><line x1="0" y1="0" x2="0" y2="178" fill="rgb(0, 0, 0)" stroke="rgb(60, 60, 60)" stroke-width="1px" opacity="0.25"></line><line x1="31.11111111111111" y1="0" x2="31.11111111111111" y2="178" fill="rgb(0, 0, 0)" stroke="rgb(60, 60, 60)" stroke-width="1px" opacity="0.25"></line><line x1="62.22222222222222" y1="0" x2="62.22222222222222" y2="178" fill="rgb(0, 0, 0)" stroke="rgb(60, 60, 60)" stroke-width="1px" opacity="0.25"></line><line x1="93.33333333333333" y1="0" x2="93.33333333333333" y2="178" fill="rgb(0, 0, 0)" stroke="rgb(60, 60, 60)" stroke-width="1px" opacity="0.25"></line><line x1="124.44444444444444" y1="0" x2="124.44444444444444" y2="178" fill="rgb(0, 0, 0)" stroke="rgb(60, 60, 60)" stroke-width="1px" opacity="0.25"></line><line x1="155.55555555555557" y1="0" x2="155.55555555555557" y2="178" fill="rgb(0, 0, 0)" stroke="rgb(60, 60, 60)" stroke-width="1px" opacity="0.25"></line><line x1="186.66666666666666" y1="0" x2="186.66666666666666" y2="178" fill="rgb(0, 0, 0)" stroke="rgb(60, 60, 60)" stroke-width="1px" opacity="0.25"></line><line x1="217.77777777777777" y1="0" x2="217.77777777777777" y2="178" fill="rgb(0, 0, 0)" stroke="rgb(60, 60, 60)" stroke-width="1px" opacity="0.25"></line><line x1="248.88888888888889" y1="0" x2="248.88888888888889" y2="178" fill="rgb(0, 0, 0)" stroke="rgb(60, 60, 60)" stroke-width="1px" opacity="0.25"></line><line x1="280" y1="0" x2="280" y2="178" fill="rgb(0, 0, 0)" stroke="rgb(60, 60, 60)" stroke-width="1px" opacity="0.25"></line></g><g><line x1="0" y1="178" x2="280" y2="178" fill="rgb(0, 0, 0)" stroke="rgb(60, 60, 60)" stroke-width="1px" opacity="0.25"></line><line x1="0" y1="155.75" x2="280" y2="155.75" fill="rgb(0, 0, 0)" stroke="rgb(60, 60, 60)" stroke-width="1px" opacity="0.25"></line><line x1="0" y1="133.5" x2="280" y2="133.5" fill="rgb(0, 0, 0)" stroke="rgb(60, 60, 60)" stroke-width="1px" opacity="0.25"></line><line x1="0" y1="111.24999999999999" x2="280" y2="111.24999999999999" fill="rgb(0, 0, 0)" stroke="rgb(60, 60, 60)" stroke-width="1px" opacity="0.25"></line><line x1="0" y1="88.99999999999999" x2="280" y2="88.99999999999999" fill="rgb(0, 0, 0)" stroke="rgb(60, 60, 60)" stroke-width="1px" opacity="0.25"></line><line x1="0" y1="66.75" x2="280" y2="66.75" fill="rgb(0, 0, 0)" stroke="rgb(60, 60, 60)" stroke-width="1px" opacity="0.25"></line><line x1="0" y1="44.5" x2="280" y2="44.5" fill="rgb(0, 0, 0)" stroke="rgb(60, 60, 60)" stroke-width="1px" opacity="0.25"></line><line x1="0" y1="22.25" x2="280" y2="22.25" fill="rgb(0, 0, 0)" stroke="rgb(60, 60, 60)" stroke-width="1px" opacity="0.25"></line><line x1="0" y1="0" x2="280" y2="0" fill="rgb(0, 0, 0)" stroke="rgb(60, 60, 60)" stroke-width="1px" opacity="0.25"></line></g></g></g><g><g><line x1="0" y1="155.75" x2="280" y2="155.75" fill="rgb(0, 0, 0)" stroke="rgb(153, 153, 153)" stroke-width="1.5px"></line></g></g><g><g><line x1="31.11111111111111" y1="0" x2="31.11111111111111" y2="178" fill="rgb(0, 0, 0)" stroke="rgb(153, 153, 153)" stroke-width="1.5px"></line></g></g><g><g><g><g><g><path stroke="rgb(255, 112, 67)" stroke-width="2px" d="M31.11111111111111,139.87262059748173L37.333333333333336,141.0690891374834L43.55555555555556,142.01765343778746L49.77777777777778,142.3680295886828L56,143.20020123295572" style="fill: none;" fill="none"></path></g><g><path stroke="rgb(187, 187, 187)" stroke-width="2px" d="M31.11111111111111,130.94300999119878L37.333333333333336,133.85870534740388L43.55555555555556,136.22835711313755L49.77777777777778,136.99740158296737L56,138.2166375990396" style="fill: none;" fill="none"></path></g><g><path stroke="rgb(51, 187, 238)" stroke-width="2px" d="M31.11111111111111,58.07017681002617L37.333333333333336,84.13348339311779L43.55555555555556,96.90492861033701L49.77777777777778,107.36237717208947L56,116.53092100066415L62.22222222222222,123.11987838305775L68.44444444444444,127.87868106129064L74.66666666666667,131.3119413765263L80.88888888888889,134.0688971830491L87.11111111111111,135.97083094132657" style="fill: none;" fill="none"></path></g><g><path stroke="rgb(204, 51, 17)" stroke-width="2px" d="M31.11111111111111,24.834672182798386L37.333333333333336,52.18704012967642L43.55555555555556,71.40127001124985L49.77777777777778,88.20891009142403L56,99.92177039961861L62.22222222222222,110.75772421764935L68.44444444444444,117.83765306743126L74.66666666666667,120.71293464457769L80.88888888888889,125.7246329999488L87.11111111111111,129.4018238738596" style="fill: none;" fill="none"></path></g><g><path stroke="rgb(204, 51, 17)" stroke-width="2px" d="M31.11111111111111,131.13090150803328L37.333333333333336,131.11667176056653L43.55555555555556,131.80891755572995L49.77777777777778,132.3453360808849L56,132.88041032561716" style="fill: none;" fill="none"></path></g><g><path stroke="rgb(0, 119, 187)" stroke-width="2px" d="M31.11111111111111,125.05664483457804L37.333333333333336,125.77719183452427L43.55555555555556,126.4394658992485L49.77777777777778,127.40826531702324L56,127.81064817710863" style="fill: none;" fill="none"></path></g><g><path stroke="rgb(0, 153, 136)" stroke-width="2px" d="M31.11111111111111,69.80963599681854L37.333333333333336,82.8177512511611L43.55555555555556,93.2082043107675L49.77777777777778,101.59278307430556L56,108.21149712344949L62.22222222222222,113.51257313151216L68.44444444444444,117.87145094720394L74.66666666666667,121.34722988054195L80.88888888888889,124.25998561763316L87.11111111111111,126.72674703542181" style="fill: none;" fill="none"></path></g><g><path stroke="rgb(238, 51, 119)" stroke-width="2px" d="M31.11111111111111,42.443231016397476L37.333333333333336,61.368223221972585L43.55555555555556,75.79349391375268L49.77777777777778,87.50751778283428L56,97.48526964179452L62.22222222222222,104.1115450002353L68.44444444444444,109.49893462077152L74.66666666666667,113.39040315888526L80.88888888888889,117.74262160231206L87.11111111111111,119.90535049049551" style="fill: none;" fill="none"></path></g><g><path stroke="rgb(0, 119, 187)" stroke-width="2px" d="M31.11111111111111,32.609804540872574L37.333333333333336,33.302646324038506L43.55555555555556,33.25447334075459L49.77777777777778,33.336190248565636L56,33.59786565427065L62.22222222222222,34.271011188190116L68.44444444444444,35.8987304634388L74.66666666666667,38.484808265112825L80.88888888888889,42.329713575796326L87.11111111111111,44.079522587020925L93.33333333333333,44.80452442985281L99.55555555555556,35.099976827621894L105.77777777777777,36.089619741501544L112,40.37632793204262L118.22222222222223,43.423368785596026L124.44444444444444,44.08664674504416L130.66666666666666,48.2067050115693L136.88888888888889,48.830675515866794L143.1111111111111,42.5477975559864L149.33333333333334,40.049135629499695L155.55555555555557,38.907278656453606L161.77777777777777,39.790213797610086L168,42.649679518067465L174.22222222222223,43.95187212130082L180.44444444444446,46.17577613509176L186.66666666666666,46.16406354763787L192.88888888888889,38.874872504523005L199.11111111111111,41.451205589290154L205.33333333333331,43.84370865636069L211.55555555555554,45.18469139903849L217.77777777777777,46.74617968630474L224,47.136093174445435L230.2222222222222,49.01520983908908L236.44444444444446,50.38376764126313L242.66666666666669,52.28029143296181L248.88888888888889,51.834294490282005L255.11111111111111,54.12796368961277L261.3333333333333,53.76779632890444L267.55555555555554,54.84728518442938L273.77777777777777,55.25173158292374" style="fill: none;" fill="none"></path></g><g><path stroke="rgb(255, 112, 67)" stroke-width="2px" d="M31.11111111111111,22.560790449380875L37.333333333333336,28.814261954277754L43.55555555555556,31.577651060357386L49.77777777777778,32.38921128739328L56,31.126806980015747L62.22222222222222,32.438970098418004L68.44444444444444,33.36543146405846L74.66666666666667,34.64243565532992L80.88888888888889,36.4440224029068L87.11111111111111,37.484549160031214L93.33333333333333,39.313741950950885L99.55555555555556,41.16643626258206L105.77777777777777,39.01795749437208L112,36.88182102301964L118.22222222222223,39.634288013750265L124.44444444444444,42.21883440980504L130.66666666666666,45.17903529054796L136.88888888888889,44.151868990831396L143.1111111111111,44.4779078268389L149.33333333333334,42.718798271582486L155.55555555555557,39.64416359222909L161.77777777777777,38.36237485320829L168,39.18016968158866L174.22222222222223,40.82387562204828L180.44444444444446,42.388736933581065L186.66666666666666,41.990366143000166L192.88888888888889,43.77707669736726L199.11111111111111,43.071370273198625L205.33333333333331,42.871088448499584L211.55555555555554,43.39357646532415L217.77777777777777,44.83737920140023L224,46.574077222370576L230.2222222222222,47.112008682918294L236.44444444444446,48.60907024383159L242.66666666666669,50.585102021328964L248.88888888888889,50.226182194603304L255.11111111111111,49.244154794130644L261.3333333333333,49.83261223839511L267.55555555555554,49.78383647911882L273.77777777777777,48.457125068995914" style="fill: none;" fill="none"></path></g></g></g></g><g opacity="0.2"><g><g><g><path stroke="rgb(255, 112, 67)" stroke-width="2px" d="M31.11111111111111,139.87262059748173L37.333333333333336,141.78697026148438L43.55555555555556,142.9282751660794L49.77777777777778,142.7800719421357L56,144.2866845317185" style="fill: none;" fill="none"></path></g><g><path stroke="rgb(187, 187, 187)" stroke-width="2px" d="M31.11111111111111,130.94300999119878L37.333333333333336,135.60812256112695L43.55555555555556,138.50322280824184L49.77777777777778,137.90179787948728L56,139.8084721416235" style="fill: none;" fill="none"></path></g><g><path stroke="rgb(51, 187, 238)" stroke-width="2px" d="M31.11111111111111,58.07017681002617L37.333333333333336,99.77146734297276L43.55555555555556,109.16551601886749L49.77777777777778,119.66033668071032L56,128.50137182325125L62.22222222222222,132.23477846756577L68.44444444444444,134.6838450320065L74.66666666666667,136.31766787543893L80.88888888888889,138.1348714865744L87.11111111111111,138.79498091340065" style="fill: none;" fill="none"></path></g><g><path stroke="rgb(204, 51, 17)" stroke-width="2px" d="M31.11111111111111,24.834672182798386L37.333333333333336,68.5984608978033L43.55555555555556,89.84693069756031L49.77777777777778,107.97469482570887L56,115.21408081799746L62.22222222222222,125.74774929136038L68.44444444444444,127.96206460148096L74.66666666666667,124.90512278676033L80.88888888888889,133.11591460183263L87.11111111111111,134.86202376708388" style="fill: none;" fill="none"></path></g><g><path stroke="rgb(204, 51, 17)" stroke-width="2px" d="M31.11111111111111,131.13090150803328L37.333333333333336,131.1081339120865L43.55555555555556,132.47347351908684L49.77777777777778,132.9761642664671L56,133.5790032595396" style="fill: none;" fill="none"></path></g><g><path stroke="rgb(0, 119, 187)" stroke-width="2px" d="M31.11111111111111,125.05664483457804L37.333333333333336,126.20952003449202L43.55555555555556,127.07524900138378L49.77777777777778,128.54757343232632L56,128.33599923923612" style="fill: none;" fill="none"></path></g><g><path stroke="rgb(0, 153, 136)" stroke-width="2px" d="M31.11111111111111,69.80963599681854L37.333333333333336,90.62262040376663L43.55555555555556,103.18303924798965L49.77777777777778,111.4530477002263L56,116.85289018601179L62.22222222222222,120.84586963802576L68.44444444444444,124.10471596568823L74.66666666666667,126.41494893282652L80.88888888888889,128.55573455616832L87.11111111111111,130.38960025459528" style="fill: none;" fill="none"></path></g><g><path stroke="rgb(238, 51, 119)" stroke-width="2px" d="M31.11111111111111,42.443231016397476L37.333333333333336,72.72321854531765L43.55555555555556,89.6417537778616L49.77777777777778,101.28320985287428L56,110.512222468853L62.22222222222222,113.27806928008795L68.44444444444444,117.20298797637224L74.66666666666667,119.06420164555311L80.88888888888889,124.16129843145609L87.11111111111111,123.11675083637238" style="fill: none;" fill="none"></path></g><g><path stroke="rgb(0, 119, 187)" stroke-width="2px" d="M31.11111111111111,32.609804540872574L37.333333333333336,33.718351393938065L43.55555555555556,33.20822727680206L49.77777777777778,33.43228933215141L56,33.93950906395912L62.22222222222222,35.202213793992996L68.44444444444444,38.226395070552826L74.66666666666667,42.25533452630043L80.88888888888889,48.00020207464695L87.11111111111111,46.67778503894806L93.33333333333333,45.88545148074627L99.55555555555556,20.595967143774033L105.77777777777777,37.570852756500244L112,46.79799211025238L118.22222222222223,47.990348383784294L124.44444444444444,45.0810958892107L130.66666666666666,54.38504894077778L136.88888888888889,49.76647284626961L143.1111111111111,33.124437749385834L149.33333333333334,36.30137112736702L155.55555555555557,37.194555819034576L161.77777777777777,41.11458745598793L168,46.93882164359093L174.22222222222223,45.90514560043812L180.44444444444446,49.511616349220276L186.66666666666666,46.14649471640587L192.88888888888889,27.94110459089279L199.11111111111111,45.31570126116276L205.33333333333331,47.43246105313301L211.55555555555554,47.19616477191448L217.77777777777777,49.08841159939766L224,47.72096332907677L230.2222222222222,51.83388461172581L236.44444444444446,52.436604246497154L242.66666666666669,55.12507703900337L248.88888888888889,51.16529908776283L255.11111111111111,57.56846745312214L261.3333333333333,53.22754529118538L267.55555555555554,56.466518461704254L273.77777777777777,55.85840117931366" style="fill: none;" fill="none"></path></g><g><path stroke="rgb(255, 112, 67)" stroke-width="2px" d="M31.11111111111111,22.560790449380875L37.333333333333336,32.56634485721588L43.55555555555556,34.23050460219383L49.77777777777778,33.34360611438751L56,29.478611916303635L62.22222222222222,34.254164069890976L68.44444444444444,34.69028604030609L74.66666666666667,36.50432002544403L80.88888888888889,39.10101291537285L87.11111111111111,39.02961012721062L93.33333333333333,42.04094049334526L99.55555555555556,43.93539544939995L105.77777777777777,35.80225449800491L112,33.68180122971535L118.22222222222223,43.759753078222275L124.44444444444444,46.093831181526184L130.66666666666666,49.61808395385742L136.88888888888889,42.61138033866882L143.1111111111111,44.9669164121151L149.33333333333334,40.080294728279114L155.55555555555557,35.03238019347191L161.77777777777777,36.43973392248154L168,40.40684577822685L174.22222222222223,43.289415061473846L180.44444444444446,44.736017778515816L186.66666666666666,41.39281165599823L192.88888888888889,46.45713795721531L199.11111111111111,42.012811720371246L205.33333333333331,42.57066589593887L211.55555555555554,44.177308201789856L217.77777777777777,47.00308282673359L224,49.179123908281326L230.2222222222222,47.918905809521675L236.44444444444446,50.85466247797012L242.66666666666669,53.549149602651596L248.88888888888889,49.68780246376991L255.11111111111111,47.7711137086153L261.3333333333333,50.715298399329185L267.55555555555554,49.710672840476036L273.77777777777777,46.46705795824528" style="fill: none;" fill="none"></path></g></g></g></g></g></g><g transform="translate(50, 178)" clip-path="url(#clip_1)"><clipPath id="clip_1"><rect width="280" height="22"></rect></clipPath><g><g><line x1="0" y1="0" x2="0" y2="5" style="visibility: inherit;" fill="rgb(0, 0, 0)" stroke="rgb(204, 204, 204)" stroke-width="1px"></line><line x1="31.11111111111111" y1="0" x2="31.11111111111111" y2="5" style="visibility: inherit;" fill="rgb(0, 0, 0)" stroke="rgb(204, 204, 204)" stroke-width="1px"></line><line x1="62.22222222222222" y1="0" x2="62.22222222222222" y2="5" style="visibility: inherit;" fill="rgb(0, 0, 0)" stroke="rgb(204, 204, 204)" stroke-width="1px"></line><line x1="93.33333333333333" y1="0" x2="93.33333333333333" y2="5" style="visibility: inherit;" fill="rgb(0, 0, 0)" stroke="rgb(204, 204, 204)" stroke-width="1px"></line><line x1="124.44444444444444" y1="0" x2="124.44444444444444" y2="5" style="visibility: inherit;" fill="rgb(0, 0, 0)" stroke="rgb(204, 204, 204)" stroke-width="1px"></line><line x1="155.55555555555557" y1="0" x2="155.55555555555557" y2="5" style="visibility: inherit;" fill="rgb(0, 0, 0)" stroke="rgb(204, 204, 204)" stroke-width="1px"></line><line x1="186.66666666666666" y1="0" x2="186.66666666666666" y2="5" style="visibility: inherit;" fill="rgb(0, 0, 0)" stroke="rgb(204, 204, 204)" stroke-width="1px"></line><line x1="217.77777777777777" y1="0" x2="217.77777777777777" y2="5" style="visibility: inherit;" fill="rgb(0, 0, 0)" stroke="rgb(204, 204, 204)" stroke-width="1px"></line><line x1="248.88888888888889" y1="0" x2="248.88888888888889" y2="5" style="visibility: inherit;" fill="rgb(0, 0, 0)" stroke="rgb(204, 204, 204)" stroke-width="1px"></line><line x1="280" y1="0" x2="280" y2="5" style="visibility: inherit;" fill="rgb(0, 0, 0)" stroke="rgb(204, 204, 204)" stroke-width="1px"></line></g><g transform="translate(0, 8)"><text x="0" y="0" dx="0em" dy="0.95em" style="text-anchor: middle; visibility: hidden; font-family: Roboto, sans-serif; font-size: 12px; font-weight: 200;" fill="rgb(50, 49, 63)" stroke="none" stroke-width="1px">-5</text><text x="31.11111111111111" y="0" dx="0em" dy="0.95em" style="text-anchor: middle; visibility: inherit; font-family: Roboto, sans-serif; font-size: 12px; font-weight: 200;" fill="rgb(50, 49, 63)" stroke="none" stroke-width="1px">0</text><text x="62.22222222222222" y="0" dx="0em" dy="0.95em" style="text-anchor: middle; visibility: inherit; font-family: Roboto, sans-serif; font-size: 12px; font-weight: 200;" fill="rgb(50, 49, 63)" stroke="none" stroke-width="1px">5</text><text x="93.33333333333333" y="0" dx="0em" dy="0.95em" style="text-anchor: middle; visibility: inherit; font-family: Roboto, sans-serif; font-size: 12px; font-weight: 200;" fill="rgb(50, 49, 63)" stroke="none" stroke-width="1px">10</text><text x="124.44444444444444" y="0" dx="0em" dy="0.95em" style="text-anchor: middle; visibility: inherit; font-family: Roboto, sans-serif; font-size: 12px; font-weight: 200;" fill="rgb(50, 49, 63)" stroke="none" stroke-width="1px">15</text><text x="155.55555555555557" y="0" dx="0em" dy="0.95em" style="text-anchor: middle; visibility: inherit; font-family: Roboto, sans-serif; font-size: 12px; font-weight: 200;" fill="rgb(50, 49, 63)" stroke="none" stroke-width="1px">20</text><text x="186.66666666666666" y="0" dx="0em" dy="0.95em" style="text-anchor: middle; visibility: inherit; font-family: Roboto, sans-serif; font-size: 12px; font-weight: 200;" fill="rgb(50, 49, 63)" stroke="none" stroke-width="1px">25</text><text x="217.77777777777777" y="0" dx="0em" dy="0.95em" style="text-anchor: middle; visibility: inherit; font-family: Roboto, sans-serif; font-size: 12px; font-weight: 200;" fill="rgb(50, 49, 63)" stroke="none" stroke-width="1px">30</text><text x="248.88888888888889" y="0" dx="0em" dy="0.95em" style="text-anchor: middle; visibility: inherit; font-family: Roboto, sans-serif; font-size: 12px; font-weight: 200;" fill="rgb(50, 49, 63)" stroke="none" stroke-width="1px">35</text><text x="280" y="0" dx="0em" dy="0.95em" style="text-anchor: middle; visibility: hidden; font-family: Roboto, sans-serif; font-size: 12px; font-weight: 200;" fill="rgb(50, 49, 63)" stroke="none" stroke-width="1px">40</text></g><line x1="0" y1="0" x2="280" y2="0" fill="rgb(0, 0, 0)" stroke="rgb(204, 204, 204)" stroke-width="1px"></line></g></g></g></g></svg>