<svg viewBox="0 0 330 200" xmlns="http://www.w3.org/2000/svg"><g><g><g><g><g><line x1="50" y1="178" x2="45" y2="178" style="visibility: inherit;" fill="rgb(0, 0, 0)" stroke="rgb(204, 204, 204)" stroke-width="1px"></line><line x1="50" y1="163.16666666666666" x2="45" y2="163.16666666666666" style="visibility: inherit;" fill="rgb(0, 0, 0)" stroke="rgb(204, 204, 204)" stroke-width="1px"></line><line x1="50" y1="148.33333333333334" x2="45" y2="148.33333333333334" style="visibility: inherit;" fill="rgb(0, 0, 0)" stroke="rgb(204, 204, 204)" stroke-width="1px"></line><line x1="50" y1="133.5" x2="45" y2="133.5" style="visibility: inherit;" fill="rgb(0, 0, 0)" stroke="rgb(204, 204, 204)" stroke-width="1px"></line><line x1="50" y1="118.66666666666669" x2="45" y2="118.66666666666669" style="visibility: inherit;" fill="rgb(0, 0, 0)" stroke="rgb(204, 204, 204)" stroke-width="1px"></line><line x1="50" y1="103.83333333333334" x2="45" y2="103.83333333333334" style="visibility: inherit;" fill="rgb(0, 0, 0)" stroke="rgb(204, 204, 204)" stroke-width="1px"></line><line x1="50" y1="89.00000000000001" x2="45" y2="89.00000000000001" style="visibility: inherit;" fill="rgb(0, 0, 0)" stroke="rgb(204, 204, 204)" stroke-width="1px"></line><line x1="50" y1="74.16666666666669" x2="45" y2="74.16666666666669" style="visibility: inherit;" fill="rgb(0, 0, 0)" stroke="rgb(204, 204, 204)" stroke-width="1px"></line><line x1="50" y1="59.33333333333336" x2="45" y2="59.33333333333336" style="visibility: inherit;" fill="rgb(0, 0, 0)" stroke="rgb(204, 204, 204)" stroke-width="1px"></line><line x1="50" y1="44.50000000000002" x2="45" y2="44.50000000000002" style="visibility: inherit;" fill="rgb(0, 0, 0)" stroke="rgb(204, 204, 204)" stroke-width="1px"></line><line x1="50" y1="29.66666666666668" x2="45" y2="29.66666666666668" style="visibility: inherit;" fill="rgb(0, 0, 0)" stroke="rgb(204, 204, 204)" stroke-width="1px"></line><line x1="50" y1="14.83333333333334" x2="45" y2="14.83333333333334" style="visibility: inherit;" fill="rgb(0, 0, 0)" stroke="rgb(204, 204, 204)" stroke-width="1px"></line><line x1="50" y1="0" x2="45" y2="0" style="visibility: inherit;" fill="rgb(0, 0, 0)" stroke="rgb(204, 204, 204)" stroke-width="1px"></line></g><g transform="translate(40, 0)"><text x="0" y="178" dx="0em" dy="0.3em" style="text-anchor: end; visibility: hidden; font-family: Roboto, sans-serif; font-size: 12px; font-weight: 200;" fill="rgb(50, 49, 63)" stroke="none" stroke-width="1px">-0.1</text><text x="0" y="163.16666666666666" dx="0em" dy="0.3em" style="text-anchor: end; visibility: inherit; font-family: Roboto, sans-serif; font-size: 12px; font-weight: 200;" fill="rgb(50, 49, 63)" stroke="none" stroke-width="1px">0</text><text x="0" y="148.33333333333334" dx="0em" dy="0.3em" style="text-anchor: end; visibility: hidden; font-family: Roboto, sans-serif; font-size: 12px; font-weight: 200;" fill="rgb(50, 49, 63)" stroke="none" stroke-width="1px">0.1</text><text x="0" y="133.5" dx="0em" dy="0.3em" style="text-anchor: end; visibility: inherit; font-family: Roboto, sans-serif; font-size: 12px; font-weight: 200;" fill="rgb(50, 49, 63)" stroke="none" stroke-width="1px">0.2</text><text x="0" y="118.66666666666669" dx="0em" dy="0.3em" style="text-anchor: end; visibility: hidden; font-family: Roboto, sans-serif; font-size: 12px; font-weight: 200;" fill="rgb(50, 49, 63)" stroke="none" stroke-width="1px">0.3</text><text x="0" y="103.83333333333334" dx="0em" dy="0.3em" style="text-anchor: end; visibility: inherit; font-family: Roboto, sans-serif; font-size: 12px; font-weight: 200;" fill="rgb(50, 49, 63)" stroke="none" stroke-width="1px">0.4</text><text x="0" y="89.00000000000001" dx="0em" dy="0.3em" style="text-anchor: end; visibility: hidden; font-family: Roboto, sans-serif; font-size: 12px; font-weight: 200;" fill="rgb(50, 49, 63)" stroke="none" stroke-width="1px">0.5</text><text x="0" y="74.16666666666669" dx="0em" dy="0.3em" style="text-anchor: end; visibility: inherit; font-family: Roboto, sans-serif; font-size: 12px; font-weight: 200;" fill="rgb(50, 49, 63)" stroke="none" stroke-width="1px">0.6</text><text x="0" y="59.33333333333336" dx="0em" dy="0.3em" style="text-anchor: end; visibility: hidden; font-family: Roboto, sans-serif; font-size: 12px; font-weight: 200;" fill="rgb(50, 49, 63)" stroke="none" stroke-width="1px">0.7</text><text x="0" y="44.50000000000002" dx="0em" dy="0.3em" style="text-anchor: end; visibility: inherit; font-family: Roboto, sans-serif; font-size: 12px; font-weight: 200;" fill="rgb(50, 49, 63)" stroke="none" stroke-width="1px">0.8</text><text x="0" y="29.66666666666668" dx="0em" dy="0.3em" style="text-anchor: end; visibility: hidden; font-family: Roboto, sans-serif; font-size: 12px; font-weight: 200;" fill="rgb(50, 49, 63)" stroke="none" stroke-width="1px">0.9</text><text x="0" y="14.83333333333334" dx="0em" dy="0.3em" style="text-anchor: end; visibility: inherit; font-family: Roboto, sans-serif; font-size: 12px; font-weight: 200;" fill="rgb(50, 49, 63)" stroke="none" stroke-width="1px">1</text><text x="0" y="0" dx="0em" dy="0.3em" style="text-anchor: end; visibility: hidden; font-family: Roboto, sans-serif; font-size: 12px; font-weight: 200;" fill="rgb(50, 49, 63)" stroke="none" stroke-width="1px">1.1</text></g><line x1="50" y1="0" x2="50" y2="178" fill="rgb(0, 0, 0)" stroke="rgb(204, 204, 204)" stroke-width="1px"></line></g></g><g transform="translate(50, 0)" clip-path="url(#clip_0)"><clipPath id="clip_0"><rect width="280" height="178"></rect></clipPath><g><g><g><line x1="0" y1="0" x2="0" y2="178" fill="rgb(0, 0, 0)" stroke="rgb(60, 60, 60)" stroke-width="1px" opacity="0.25"></line><line x1="31.11111111111111" y1="0" x2="31.11111111111111" y2="178" fill="rgb(0, 0, 0)" stroke="rgb(60, 60, 60)" stroke-width="1px" opacity="0.25"></line><line x1="62.22222222222222" y1="0" x2="62.22222222222222" y2="178" fill="rgb(0, 0, 0)" stroke="rgb(60, 60, 60)" stroke-width="1px" opacity="0.25"></line><line x1="93.33333333333333" y1="0" x2="93.33333333333333" y2="178" fill="rgb(0, 0, 0)" stroke="rgb(60, 60, 60)" stroke-width="1px" opacity="0.25"></line><line x1="124.44444444444444" y1="0" x2="124.44444444444444" y2="178" fill="rgb(0, 0, 0)" stroke="rgb(60, 60, 60)" stroke-width="1px" opacity="0.25"></line><line x1="155.55555555555557" y1="0" x2="155.55555555555557" y2="178" fill="rgb(0, 0, 0)" stroke="rgb(60, 60, 60)" stroke-width="1px" opacity="0.25"></line><line x1="186.66666666666666" y1="0" x2="186.66666666666666" y2="178" fill="rgb(0, 0, 0)" stroke="rgb(60, 60, 60)" stroke-width="1px" opacity="0.25"></line><line x1="217.77777777777777" y1="0" x2="217.77777777777777" y2="178" fill="rgb(0, 0, 0)" stroke="rgb(60, 60, 60)" stroke-width="1px" opacity="0.25"></line><line x1="248.88888888888889" y1="0" x2="248.88888888888889" y2="178" fill="rgb(0, 0, 0)" stroke="rgb(60, 60, 60)" stroke-width="1px" opacity="0.25"></line><line x1="280" y1="0" x2="280" y2="178" fill="rgb(0, 0, 0)" stroke="rgb(60, 60, 60)" stroke-width="1px" opacity="0.25"></line></g><g><line x1="0" y1="178" x2="280" y2="178" fill="rgb(0, 0, 0)" stroke="rgb(60, 60, 60)" stroke-width="1px" opacity="0.25"></line><line x1="0" y1="163.16666666666666" x2="280" y2="163.16666666666666" fill="rgb(0, 0, 0)" stroke="rgb(60, 60, 60)" stroke-width="1px" opacity="0.25"></line><line x1="0" y1="148.33333333333334" x2="280" y2="148.33333333333334" fill="rgb(0, 0, 0)" stroke="rgb(60, 60, 60)" stroke-width="1px" opacity="0.25"></line><line x1="0" y1="133.5" x2="280" y2="133.5" fill="rgb(0, 0, 0)" stroke="rgb(60, 60, 60)" stroke-width="1px" opacity="0.25"></line><line x1="0" y1="118.66666666666669" x2="280" y2="118.66666666666669" fill="rgb(0, 0, 0)" stroke="rgb(60, 60, 60)" stroke-width="1px" opacity="0.25"></line><line x1="0" y1="103.83333333333334" x2="280" y2="103.83333333333334" fill="rgb(0, 0, 0)" stroke="rgb(60, 60, 60)" stroke-width="1px" opacity="0.25"></line><line x1="0" y1="89.00000000000001" x2="280" y2="89.00000000000001" fill="rgb(0, 0, 0)" stroke="rgb(60, 60, 60)" stroke-width="1px" opacity="0.25"></line><line x1="0" y1="74.16666666666669" x2="280" y2="74.16666666666669" fill="rgb(0, 0, 0)" stroke="rgb(60, 60, 60)" stroke-width="1px" opacity="0.25"></line><line x1="0" y1="59.33333333333336" x2="280" y2="59.33333333333336" fill="rgb(0, 0, 0)" stroke="rgb(60, 60, 60)" stroke-width="1px" opacity="0.25"></line><line x1="0" y1="44.50000000000002" x2="280" y2="44.50000000000002" fill="rgb(0, 0, 0)" stroke="rgb(60, 60, 60)" stroke-width="1px" opacity="0.25"></line><line x1="0" y1="29.66666666666668" x2="280" y2="29.66666666666668" fill="rgb(0, 0, 0)" stroke="rgb(60, 60, 60)" stroke-width="1px" opacity="0.25"></line><line x1="0" y1="14.83333333333334" x2="280" y2="14.83333333333334" fill="rgb(0, 0, 0)" stroke="rgb(60, 60, 60)" stroke-width="1px" opacity="0.25"></line><line x1="0" y1="0" x2="280" y2="0" fill="rgb(0, 0, 0)" stroke="rgb(60, 60, 60)" stroke-width="1px" opacity="0.25"></line></g></g></g><g><g><line x1="0" y1="163.16666666666666" x2="280" y2="163.16666666666666" fill="rgb(0, 0, 0)" stroke="rgb(153, 153, 153)" stroke-width="1.5px"></line></g></g><g><g><line x1="31.11111111111111" y1="0" x2="31.11111111111111" y2="178" fill="rgb(0, 0, 0)" stroke="rgb(153, 153, 153)" stroke-width="1.5px"></line></g></g><g><g><g><g><g><path stroke="rgb(255, 112, 67)" stroke-width="2px" d="M31.11111111111111,22.085181216398887L37.333333333333336,20.437036481996383L43.55555555555556,20.605216771566983L49.77777777777778,20.376443128740704L56,19.687877023534448" style="fill: none;" fill="none"></path></g><g><path stroke="rgb(187, 187, 187)" stroke-width="2px" d="M31.11111111111111,28.677773416042328L37.333333333333336,24.96944361925125L43.55555555555556,22.8251712877734L49.77777777777778,22.485102321149128L56,22.025709196508103" style="fill: none;" fill="none"></path></g><g><path stroke="rgb(51, 187, 238)" stroke-width="2px" d="M31.11111111111111,70.8703670303027L37.333333333333336,53.15277659893036L43.55555555555556,45.37452630972377L49.77777777777778,38.61029461822384L56,33.4444822076568L62.22222222222222,30.338052475405497L68.44444444444444,28.02702619302425L74.66666666666667,26.146104015818132L80.88888888888889,25.037975598006692L87.11111111111111,23.58436615153218" style="fill: none;" fill="none"></path></g><g><path stroke="rgb(204, 51, 17)" stroke-width="2px" d="M31.11111111111111,95.26296435793243L37.333333333333336,76.30926123137277L43.55555555555556,60.41640486664516L49.77777777777778,51.890008630450204L56,44.10975430116127L62.22222222222222,37.35826205133706L68.44444444444444,33.51477117773096L74.66666666666667,32.35154828848307L80.88888888888889,29.002363284522737L87.11111111111111,26.4839684969379" style="fill: none;" fill="none"></path></g><g><path stroke="rgb(204, 51, 17)" stroke-width="2px" d="M31.11111111111111,20.76666984955471L37.333333333333336,21.59073945383232L43.55555555555556,21.170295778180478L49.77777777777778,20.984805921275264L56,20.89019450918272" style="fill: none;" fill="none"></path></g><g><path stroke="rgb(0, 119, 187)" stroke-width="2px" d="M31.11111111111111,24.06296594937643L37.333333333333336,24.06296594937643L43.55555555555556,23.053892106020566L49.77777777777778,22.608712469245894L56,23.23946085583963" style="fill: none;" fill="none"></path></g><g><path stroke="rgb(0, 153, 136)" stroke-width="2px" d="M31.11111111111111,53.72963084777201L37.333333333333336,47.54907566060625L43.55555555555556,40.275358346043824L49.77777777777778,34.03668149787132L56,29.99675268755176L62.22222222222222,26.953860742409095L68.44444444444444,24.950302113161328L74.66666666666667,24.05288642691473L80.88888888888889,23.257791618942477L87.11111111111111,22.255281113521093" style="fill: none;" fill="none"></path></g><g><path stroke="rgb(238, 51, 119)" stroke-width="2px" d="M31.11111111111111,85.37407163778943L37.333333333333336,69.30463146666688L43.55555555555556,57.994635130677935L49.77777777777778,46.64259220484429L56,37.99295884241201L62.22222222222222,32.9780987283656L68.44444444444444,29.851937661053704L74.66666666666667,28.301416532065698L80.88888888888889,26.32238642528797L87.11111111111111,25.67842673026658" style="fill: none;" fill="none"></path></g><g><path stroke="rgb(0, 119, 187)" stroke-width="2px" d="M31.11111111111111,113.72222074866295L37.333333333333336,113.72222074866295L43.55555555555556,113.72222074866295L49.77777777777778,113.72222074866295L56,113.72222074866295L62.22222222222222,111.78595770516819L68.44444444444444,105.25771358504154L74.66666666666667,99.5822656815709L80.88888888888889,95.43946061558468L87.11111111111111,94.57250785578813L93.33333333333333,93.52637668362264L99.55555555555556,96.60103745882863L105.77777777777777,98.44154488712309L112,96.64129384048258L118.22222222222223,88.17486885371741L124.44444444444444,86.5266769110044L130.66666666666666,82.90057606083907L136.88888888888889,82.5714224228613L143.1111111111111,89.49438580934418L149.33333333333334,94.1753212094116L155.55555555555557,95.40151572443726L161.77777777777777,96.13721521788615L168,91.56821942973801L174.22222222222223,88.82684504991255L180.44444444444446,85.3360969641885L186.66666666666666,87.46092102303903L192.88888888888889,88.4721088270888L199.11111111111111,86.17807991260156L205.33333333333331,84.53795755843424L211.55555555555554,86.71833019540846L217.77777777777777,85.3895162394524L224,85.11963610393953L230.2222222222222,85.48511614484296L236.44444444444446,83.06736720280391L242.66666666666669,82.40782825216266L248.88888888888889,83.85803143128247L255.11111111111111,78.92667145028318L261.3333333333333,81.7693373457521L267.55555555555554,81.36530453845828L273.77777777777777,82.17770102262794" style="fill: none;" fill="none"></path></g><g><path stroke="rgb(255, 112, 67)" stroke-width="2px" d="M31.11111111111111,112.40370496114097L37.333333333333336,113.2277773283422L43.55555555555556,111.79826065512744L49.77777777777778,112.68243349223016L56,113.13341686160595L62.22222222222222,108.95471766529984L68.44444444444444,110.1027459876406L74.66666666666667,107.82034911077612L80.88888888888889,104.6109768869536L87.11111111111111,103.50210382382282L93.33333333333333,99.1357910165864L99.55555555555556,95.46904808703654L105.77777777777777,96.44270065150586L112,97.28998854407968L118.22222222222223,93.04903583255826L124.44444444444444,87.34040280667462L130.66666666666666,83.91625386523295L136.88888888888889,85.55436350715965L143.1111111111111,86.53712281136683L149.33333333333334,92.40100666109477L155.55555555555557,98.29258465952041L161.77777777777777,99.71779217756678L168,99.51808195410969L174.22222222222223,95.44268099834642L180.44444444444446,94.84338455508383L186.66666666666666,92.37417361607207L192.88888888888889,89.0467213358637L199.11111111111111,89.95099661843277L205.33333333333331,87.85652358108432L211.55555555555554,89.23687771541522L217.77777777777777,89.27397777085466L224,88.50512561308699L230.2222222222222,87.25270396316236L236.44444444444446,86.23754873055896L242.66666666666669,83.51882677676808L248.88888888888889,84.52463054146202L255.11111111111111,86.18292543018427L261.3333333333333,85.85938391202495L267.55555555555554,87.51118552921945L273.77777777777777,88.23856245518841" style="fill: none;" fill="none"></path></g></g></g></g><g opacity="0.2"><g><g><g><path stroke="rgb(255, 112, 67)" stroke-width="2px" d="M31.11111111111111,22.085181216398887L37.333333333333336,19.448149641354885L43.55555555555556,20.76666984955471L49.77777777777778,20.107405324776973L56,18.78888511657717" style="fill: none;" fill="none"></path></g><g><path stroke="rgb(187, 187, 187)" stroke-width="2px" d="M31.11111111111111,28.677773416042328L37.333333333333336,22.744445741176605L43.55555555555556,20.76666984955471L49.77777777777778,22.085181216398887L56,21.425925532976798" style="fill: none;" fill="none"></path></g><g><path stroke="rgb(51, 187, 238)" stroke-width="2px" d="M31.11111111111111,70.8703670303027L37.333333333333336,42.522222340106985L43.55555555555556,37.90740603208544L49.77777777777778,30.65555814901991L56,26.699997524420432L62.22222222222222,26.040741840998344L68.44444444444444,24.72222163279852L74.66666666666667,23.403701424598694L80.88888888888889,23.403701424598694L87.11111111111111,21.425925532976798" style="fill: none;" fill="none"></path></g><g><path stroke="rgb(204, 51, 17)" stroke-width="2px" d="M31.11111111111111,95.26296435793243L37.333333333333336,64.93703935543698L43.55555555555556,45.159262756506614L49.77777777777778,41.8629666566849L56,33.95185424884163L62.22222222222222,28.01851773262024L68.44444444444444,28.01851773262024L74.66666666666667,30.65555814901991L80.88888888888889,24.06296594937643L87.11111111111111,22.744445741176605" style="fill: none;" fill="none"></path></g><g><path stroke="rgb(204, 51, 17)" stroke-width="2px" d="M31.11111111111111,20.76666984955471L37.333333333333336,22.085181216398887L43.55555555555556,20.76666984955471L49.77777777777778,20.76666984955471L56,20.76666984955471" style="fill: none;" fill="none"></path></g><g><path stroke="rgb(0, 119, 187)" stroke-width="2px" d="M31.11111111111111,24.06296594937643L37.333333333333336,24.06296594937643L43.55555555555556,22.085181216398887L49.77777777777778,22.085181216398887L56,24.06296594937643" style="fill: none;" fill="none"></path></g><g><path stroke="rgb(0, 153, 136)" stroke-width="2px" d="M31.11111111111111,53.729630847771986L37.333333333333336,43.84074254830681L43.55555555555556,33.292589724063895L49.77777777777778,26.699997524420432L56,24.72222163279852L62.22222222222222,22.744445741176605L68.44444444444444,22.085181216398887L74.66666666666667,22.744445741176605L80.88888888888889,22.085181216398887L87.11111111111111,20.76666984955471" style="fill: none;" fill="none"></path></g><g><path stroke="rgb(238, 51, 119)" stroke-width="2px" d="M31.11111111111111,85.37407163778943L37.333333333333336,59.66296736399334L43.55555555555556,47.13703864812853L49.77777777777778,33.292589724063895L56,26.699997524420432L62.22222222222222,26.040741840998344L68.44444444444444,25.381477316220607L74.66666666666667,26.040741840998344L80.88888888888889,23.403701424598694L87.11111111111111,24.72222163279852" style="fill: none;" fill="none"></path></g><g><path stroke="rgb(0, 119, 187)" stroke-width="2px" d="M31.11111111111111,113.72222074866295L37.333333333333336,113.72222074866295L43.55555555555556,113.72222074866295L49.77777777777778,113.72222074866295L56,113.72222074866295L62.22222222222222,109.10740886131924L68.44444444444444,95.92222004135452L74.66666666666667,91.30740815401079L80.88888888888889,89.32962784171106L87.11111111111111,93.2851840456327L93.33333333333333,91.9666682581107L99.55555555555556,101.19629645347595L105.77777777777777,101.19629645347595L112,93.9444441497326L118.22222222222223,75.48518333832425L124.44444444444444,84.05555142958961L130.66666666666666,77.46295922994615L136.88888888888889,82.0777755379677L143.1111111111111,99.87777624527615L149.33333333333334,101.19629645347595L155.55555555555557,97.24074024955434L161.77777777777777,97.24074024955434L168,84.71481595436734L174.22222222222223,84.71481595436734L180.44444444444446,80.0999996463458L186.66666666666666,90.64814804991089L192.88888888888889,89.98888794581097L199.11111111111111,82.73704006274544L205.33333333333331,82.0777755379677L211.55555555555554,89.98888794581097L217.77777777777777,83.39629574616752L224,84.71481595436734L230.2222222222222,86.03333616256715L236.44444444444446,79.4407439629237L242.66666666666669,81.41851985454561L248.88888888888889,86.03333616256715L255.11111111111111,71.52963155508043L261.3333333333333,86.03333616256715L267.55555555555554,80.75925532976788L273.77777777777777,83.39629574616752" style="fill: none;" fill="none"></path></g><g><path stroke="rgb(255, 112, 67)" stroke-width="2px" d="M31.11111111111111,112.40370496114097L37.333333333333336,113.72222074866295L43.55555555555556,110.42592464884125L49.77777777777778,113.72222074866295L56,113.72222074866295L62.22222222222222,103.17407234509788L68.44444444444444,111.74444485704106L74.66666666666667,104.4925925532977L80.88888888888889,99.87777624527615L87.11111111111111,101.85555655757588L93.33333333333333,92.62592394153279L99.55555555555556,89.98888794581097L105.77777777777777,97.90000035365425L112,98.55926045775415L118.22222222222223,86.69259184598924L124.44444444444444,78.78147943814598L130.66666666666666,78.78147943814598L136.88888888888889,88.01111205418907L143.1111111111111,88.01111205418907L149.33333333333334,101.19629645347595L155.55555555555557,107.12962854901951L161.77777777777777,101.85555655757588L168,99.21852056185406L174.22222222222223,89.32962784171106L180.44444444444446,93.9444441497326L186.66666666666666,88.67036773761116L192.88888888888889,84.05555142958961L199.11111111111111,91.30740815401079L205.33333333333331,84.71481595436734L211.55555555555554,91.30740815401079L217.77777777777777,89.32962784171106L224,87.35184752941133L230.2222222222222,85.37407163778943L236.44444444444446,84.71481595436734L242.66666666666669,79.4407439629237L248.88888888888889,86.03333616256715L255.11111111111111,88.67036773761116L261.3333333333333,85.37407163778943L267.55555555555554,89.98888794581097L273.77777777777777,89.32962784171106" style="fill: none;" fill="none"></path></g></g></g></g></g></g><g transform="translate(50, 178)" clip-path="url(#clip_1)"><clipPath id="clip_1"><rect width="280" height="22"></rect></clipPath><g><g><line x1="0" y1="0" x2="0" y2="5" style="visibility: inherit;" fill="rgb(0, 0, 0)" stroke="rgb(204, 204, 204)" stroke-width="1px"></line><line x1="31.11111111111111" y1="0" x2="31.11111111111111" y2="5" style="visibility: inherit;" fill="rgb(0, 0, 0)" stroke="rgb(204, 204, 204)" stroke-width="1px"></line><line x1="62.22222222222222" y1="0" x2="62.22222222222222" y2="5" style="visibility: inherit;" fill="rgb(0, 0, 0)" stroke="rgb(204, 204, 204)" stroke-width="1px"></line><line x1="93.33333333333333" y1="0" x2="93.33333333333333" y2="5" style="visibility: inherit;" fill="rgb(0, 0, 0)" stroke="rgb(204, 204, 204)" stroke-width="1px"></line><line x1="124.44444444444444" y1="0" x2="124.44444444444444" y2="5" style="visibility: inherit;" fill="rgb(0, 0, 0)" stroke="rgb(204, 204, 204)" stroke-width="1px"></line><line x1="155.55555555555557" y1="0" x2="155.55555555555557" y2="5" style="visibility: inherit;" fill="rgb(0, 0, 0)" stroke="rgb(204, 204, 204)" stroke-width="1px"></line><line x1="186.66666666666666" y1="0" x2="186.66666666666666" y2="5" style="visibility: inherit;" fill="rgb(0, 0, 0)" stroke="rgb(204, 204, 204)" stroke-width="1px"></line><line x1="217.77777777777777" y1="0" x2="217.77777777777777" y2="5" style="visibility: inherit;" fill="rgb(0, 0, 0)" stroke="rgb(204, 204, 204)" stroke-width="1px"></line><line x1="248.88888888888889" y1="0" x2="248.88888888888889" y2="5" style="visibility: inherit;" fill="rgb(0, 0, 0)" stroke="rgb(204, 204, 204)" stroke-width="1px"></line><line x1="280" y1="0" x2="280" y2="5" style="visibility: inherit;" fill="rgb(0, 0, 0)" stroke="rgb(204, 204, 204)" stroke-width="1px"></line></g><g transform="translate(0, 8)"><text x="0" y="0" dx="0em" dy="0.95em" style="text-anchor: middle; visibility: hidden; font-family: Roboto, sans-serif; font-size: 12px; font-weight: 200;" fill="rgb(50, 49, 63)" stroke="none" stroke-width="1px">-5</text><text x="31.11111111111111" y="0" dx="0em" dy="0.95em" style="text-anchor: middle; visibility: inherit; font-family: Roboto, sans-serif; font-size: 12px; font-weight: 200;" fill="rgb(50, 49, 63)" stroke="none" stroke-width="1px">0</text><text x="62.22222222222222" y="0" dx="0em" dy="0.95em" style="text-anchor: middle; visibility: inherit; font-family: Roboto, sans-serif; font-size: 12px; font-weight: 200;" fill="rgb(50, 49, 63)" stroke="none" stroke-width="1px">5</text><text x="93.33333333333333" y="0" dx="0em" dy="0.95em" style="text-anchor: middle; visibility: inherit; font-family: Roboto, sans-serif; font-size: 12px; font-weight: 200;" fill="rgb(50, 49, 63)" stroke="none" stroke-width="1px">10</text><text x="124.44444444444444" y="0" dx="0em" dy="0.95em" style="text-anchor: middle; visibility: inherit; font-family: Roboto, sans-serif; font-size: 12px; font-weight: 200;" fill="rgb(50, 49, 63)" stroke="none" stroke-width="1px">15</text><text x="155.55555555555557" y="0" dx="0em" dy="0.95em" style="text-anchor: middle; visibility: inherit; font-family: Roboto, sans-serif; font-size: 12px; font-weight: 200;" fill="rgb(50, 49, 63)" stroke="none" stroke-width="1px">20</text><text x="186.66666666666666" y="0" dx="0em" dy="0.95em" style="text-anchor: middle; visibility: inherit; font-family: Roboto, sans-serif; font-size: 12px; font-weight: 200;" fill="rgb(50, 49, 63)" stroke="none" stroke-width="1px">25</text><text x="217.77777777777777" y="0" dx="0em" dy="0.95em" style="text-anchor: middle; visibility: inherit; font-family: Roboto, sans-serif; font-size: 12px; font-weight: 200;" fill="rgb(50, 49, 63)" stroke="none" stroke-width="1px">30</text><text x="248.88888888888889" y="0" dx="0em" dy="0.95em" style="text-anchor: middle; visibility: inherit; font-family: Roboto, sans-serif; font-size: 12px; font-weight: 200;" fill="rgb(50, 49, 63)" stroke="none" stroke-width="1px">35</text><text x="280" y="0" dx="0em" dy="0.95em" style="text-anchor: middle; visibility: hidden; font-family: Roboto, sans-serif; font-size: 12px; font-weight: 200;" fill="rgb(50, 49, 63)" stroke="none" stroke-width="1px">40</text></g><line x1="0" y1="0" x2="280" y2="0" fill="rgb(0, 0, 0)" stroke="rgb(204, 204, 204)" stroke-width="1px"></line></g></g></g></g></svg>